<svg width="20" height="20" viewBox="0 0 20 20" fill="none" xmlns="http://www.w3.org/2000/svg">
<g id="Access control icon">
<path id="Vector" d="M11.25 11.6665C11.25 12.3568 10.6903 12.9165 10 12.9165C9.30968 12.9165 8.75001 12.3568 8.75001 11.6665C8.75001 10.9762 9.30968 10.4165 10 10.4165C10.6903 10.4165 11.25 10.9762 11.25 11.6665ZM10 1.6665C8.15906 1.6665 6.66668 3.15889 6.66668 4.99984V5.83317H6.04168C4.5459 5.83317 3.33334 7.04573 3.33334 8.5415V14.7915C3.33334 16.2873 4.5459 17.4998 6.04168 17.4998H9.16668V17.4283C9.16668 16.9863 9.34226 16.5624 9.65484 16.2498H6.04168C5.23626 16.2498 4.58334 15.5969 4.58334 14.7915V8.5415C4.58334 7.73609 5.23626 7.08317 6.04168 7.08317H13.9583C14.7638 7.08317 15.4167 7.73609 15.4167 8.5415V9.25942C15.6847 9.19859 15.9636 9.1665 16.25 9.1665C16.3908 9.1665 16.5298 9.17425 16.6667 9.18942V8.5415C16.6667 7.04573 15.4541 5.83317 13.9583 5.83317H13.3333V4.99984C13.3333 3.15889 11.8409 1.6665 10 1.6665ZM7.91668 4.99984C7.91668 3.84925 8.84943 2.9165 10 2.9165C11.1506 2.9165 12.0833 3.84925 12.0833 4.99984V5.83317H7.91668V4.99984ZM16.25 15.8332C17.8608 15.8332 19.1667 14.5273 19.1667 12.9165C19.1667 11.3057 17.8608 9.99984 16.25 9.99984C14.6392 9.99984 13.3333 11.3057 13.3333 12.9165C13.3333 13.1718 13.3662 13.4194 13.4278 13.6554L10.2441 16.8391C10.0878 16.9953 10 17.2073 10 17.4283V18.7498C10 18.9799 10.1866 19.1665 10.4167 19.1665H12.0833C12.3134 19.1665 12.5 18.9799 12.5 18.7498V18.3332H13.3333C13.5634 18.3332 13.75 18.1466 13.75 17.9165V17.0832H14.5833C14.8134 17.0832 15 16.8966 15 16.6665V15.8332H16.25ZM16.6667 11.6665C17.1269 11.6665 17.5 12.0396 17.5 12.4998C17.5 12.9601 17.1269 13.3332 16.6667 13.3332C16.2064 13.3332 15.8333 12.9601 15.8333 12.4998C15.8333 12.0396 16.2064 11.6665 16.6667 11.6665Z" fill="#8192AB"/>
</g>
</svg>
