<svg width="20" height="20" viewBox="0 0 20 20" fill="none" xmlns="http://www.w3.org/2000/svg">
<g id="Tickets">
<path id="Vector" d="M12.1084 2.99214C11.8643 2.74807 11.4686 2.74807 11.2245 2.99214L2.99229 11.2243C2.74821 11.4684 2.74821 11.8642 2.99229 12.1083L3.88247 12.9984C4.21349 12.8133 4.59512 12.708 4.99965 12.708C6.2653 12.708 7.29131 13.734 7.29131 14.9997C7.29131 15.4043 7.18597 15.7858 7.00091 16.1168L7.89119 17.0072C8.13527 17.2513 8.53099 17.2513 8.77507 17.0072L17.0073 8.77492C17.2514 8.53084 17.2514 8.13512 17.0073 7.89105L16.1171 7.00081C15.786 7.18597 15.4042 7.29137 14.9997 7.29137C13.734 7.29137 12.708 6.26535 12.708 4.9997C12.708 4.59507 12.8134 4.21334 12.9986 3.88227L12.1084 2.99214ZM10.3407 2.10826C11.0729 1.37602 12.2601 1.37602 12.9923 2.10826L13.9685 3.08449C14.3942 3.51012 14.3179 4.1076 14.1032 4.46857C14.0111 4.6236 13.958 4.80449 13.958 4.9997C13.958 5.575 14.4243 6.04137 14.9997 6.04137C15.1948 6.04137 15.3757 5.98827 15.5307 5.89608C15.8917 5.68147 16.4892 5.60519 16.9148 6.03082L17.8912 7.00716C18.6234 7.7394 18.6234 8.92659 17.8912 9.65884L9.65899 17.891C8.92674 18.6233 7.73954 18.6233 7.00731 17.891L6.03092 16.9147C5.60535 16.4891 5.68154 15.8917 5.8961 15.5308C5.98823 15.3757 6.04131 15.1948 6.04131 14.9997C6.04131 14.4244 5.57494 13.958 4.99965 13.958C4.80449 13.958 4.62363 14.0111 4.46863 14.1033C4.10766 14.3178 3.51026 14.394 3.08469 13.9684L2.10841 12.9922C1.37617 12.2599 1.37618 11.0728 2.10841 10.3405L10.3407 2.10826Z" fill="#8192AB"/>
</g>
</svg>
