<svg width="20" height="20" viewBox="0 0 20 20" fill="none" xmlns="http://www.w3.org/2000/svg">
<g id="System log icon">
<path id="Vector" d="M6.87869 6.66872C7.6841 6.66872 8.33699 7.32164 8.33699 8.12705V16.0438C8.33699 16.8493 7.6841 17.5022 6.87869 17.5022H3.12499C2.31957 17.5022 1.66666 16.8493 1.66666 16.0438V8.12705C1.66666 7.32164 2.31957 6.66872 3.12499 6.66872H6.87869ZM6.87869 7.91872H3.12499C3.00993 7.91872 2.91666 8.012 2.91666 8.12705V16.0438C2.91666 16.1589 3.00993 16.2522 3.12499 16.2522H6.87869C6.99375 16.2522 7.08702 16.1589 7.08702 16.0438V8.12705C7.08702 8.012 6.99375 7.91872 6.87869 7.91872ZM5.21017 14.1663C5.55535 14.1663 5.83517 14.446 5.83517 14.7913C5.83517 15.1077 5.60004 15.3691 5.29498 15.4105L5.21017 15.4163H4.79351C4.44832 15.4163 4.16851 15.1364 4.16851 14.7913C4.16851 14.4748 4.40363 14.2133 4.7087 14.1719L4.79351 14.1663H5.21017ZM17.7078 13.7494C18.053 13.7494 18.3328 14.0293 18.3328 14.3744C18.3328 14.6908 18.0977 14.9523 17.7926 14.9938L17.7078 14.9994L9.16666 14.999V13.749L17.7078 13.7494ZM15.2083 4.1665C16.0137 4.1665 16.6667 4.81942 16.6667 5.62484V11.8751C16.6667 12.6805 16.0137 13.3334 15.2083 13.3334L9.16666 13.3332V12.0832L15.2083 12.0834C15.3234 12.0834 15.4167 11.9902 15.4167 11.8751V5.62484C15.4167 5.50978 15.3234 5.4165 15.2083 5.4165H4.79166C4.6766 5.4165 4.58332 5.50978 4.58332 5.62484L4.58249 5.83234H3.33332V5.62484C3.33332 4.81942 3.98624 4.1665 4.79166 4.1665H15.2083Z" fill="#8192AB"/>
</g>
</svg>
