<svg width="20" height="20" viewBox="0 0 20 20" fill="none" xmlns="http://www.w3.org/2000/svg">
<g id="User">
<path id="Vector" d="M14.7954 11.667C15.8305 11.667 16.6695 12.506 16.6695 13.5411V14.0206C16.6695 14.7658 16.4032 15.4865 15.9186 16.0527C14.6107 17.5806 12.6214 18.3346 10.0003 18.3346C7.37874 18.3346 5.3904 17.5803 4.08515 16.0517C3.602 15.486 3.33658 14.7664 3.33658 14.0224V13.5411C3.33658 12.506 4.17562 11.667 5.21064 11.667H14.7954ZM14.7954 12.917H5.21064C4.86598 12.917 4.58658 13.1964 4.58658 13.5411V14.0224C4.58658 14.4688 4.74584 14.9006 5.03571 15.24C6.08014 16.4631 7.71837 17.0846 10.0003 17.0846C12.2822 17.0846 13.9219 16.4631 14.9689 15.2398C15.2597 14.9001 15.4195 14.4677 15.4195 14.0206V13.5411C15.4195 13.1964 15.1401 12.917 14.7954 12.917ZM10.0003 1.6709C12.3015 1.6709 14.167 3.53638 14.167 5.83756C14.167 8.13876 12.3015 10.0042 10.0003 10.0042C7.6991 10.0042 5.83362 8.13876 5.83362 5.83756C5.83362 3.53638 7.6991 1.6709 10.0003 1.6709ZM10.0003 2.9209C8.38949 2.9209 7.08362 4.22674 7.08362 5.83756C7.08362 7.4484 8.38949 8.75425 10.0003 8.75425C11.6112 8.75425 12.917 7.4484 12.917 5.83756C12.917 4.22674 11.6112 2.9209 10.0003 2.9209Z" fill="#8192AB"/>
</g>
</svg>
