<svg width="20" height="21" viewBox="0 0 20 21" fill="none" xmlns="http://www.w3.org/2000/svg">
<g id="Address">
<path id="Vector" d="M5.22223 4.66016C7.77819 2.1042 11.8729 2.02469 14.525 4.4209L14.7769 4.66016C17.4147 7.29792 17.4153 11.5743 14.7789 14.2129L13.7896 15.1914L10.9556 17.9473C10.4561 18.4303 9.68199 18.4606 9.14801 18.0381L9.04449 17.9473L6.13629 15.1182H6.13531L5.22223 14.2148C2.66642 11.6588 2.5866 7.56414 4.98297 4.91211L5.22223 4.66016ZM14.6002 4.83691C12.1388 2.37576 8.19605 2.29904 5.64215 4.60645L5.39899 4.83691C2.93753 7.29836 2.86077 11.2419 5.16852 13.7959L5.39899 14.0381L5.40192 14.041L6.64117 15.2637L6.64215 15.2646L9.21832 17.7676C9.62703 18.1626 10.2599 18.1875 10.6968 17.8418L10.7818 17.7676L10.7828 17.7666L13.6119 15.0156L13.6138 15.0137L14.6002 14.0381C17.0616 11.5767 17.1383 7.63405 14.8306 5.08008L14.6002 4.83691ZM9.99957 7.66602C11.1048 7.66602 12.0015 8.56173 12.0015 9.66699C12.0015 10.7723 11.1048 11.668 9.99957 11.668C8.89439 11.6678 7.9986 10.7722 7.9986 9.66699C7.99864 8.56182 8.89443 7.66614 9.99957 7.66602ZM9.99957 7.91602C9.0325 7.91614 8.24864 8.69987 8.2486 9.66699C8.2486 10.6342 9.0325 11.4178 9.99957 11.418C10.9668 11.418 11.7515 10.6342 11.7515 9.66699C11.7515 8.69983 10.9668 7.91602 9.99957 7.91602Z" fill="#4D5158" stroke="#B0B0B0"/>
</g>
</svg>
