<svg width="20" height="21" viewBox="0 0 20 21" fill="none" xmlns="http://www.w3.org/2000/svg">
<g id="country">
<path id="Vector" d="M15.0004 11.416C16.7951 11.4162 18.2504 12.8712 18.2504 14.666C18.2504 15.9528 17.263 17.4351 14.9995 19.1436C12.7365 17.4353 11.7505 15.9527 11.7504 14.666C11.7504 12.8711 13.2055 11.416 15.0004 11.416ZM10.0004 2.66504C14.3088 2.66522 17.8027 6.14297 17.8325 10.4443C17.7494 10.3885 17.664 10.3361 17.5776 10.2852C17.5626 9.74627 17.4955 9.22082 17.3735 8.71484L17.2807 8.33203H14.0883L13.5385 8.33301L13.5912 8.88086C13.6192 9.17043 13.6361 9.46577 13.6489 9.76562C13.566 9.78843 13.4839 9.813 13.4028 9.83984C13.3884 9.47808 13.3641 9.12365 13.3276 8.7793L13.2807 8.33203H6.71918L6.6723 8.7793C6.61375 9.33047 6.58246 9.90691 6.58246 10.5C6.58248 11.4095 6.65603 12.2785 6.78851 13.0811L6.85785 13.5H10.0522C10.0329 13.5822 10.0176 13.6654 10.0024 13.749H6.89789L7.06781 14.3799C7.34962 15.4233 7.74302 16.3189 8.21429 16.9658C8.67398 17.5968 9.28136 18.084 10.0004 18.084C10.3631 18.0839 10.6966 17.9576 10.9955 17.7559C11.1045 17.9117 11.2221 18.0648 11.3452 18.2178C10.9084 18.2933 10.4593 18.334 10.0004 18.334C5.67358 18.334 2.16565 14.8268 2.16547 10.5C2.16547 6.17305 5.67347 2.66504 10.0004 2.66504ZM3.5639 14.5146C4.41848 15.8817 5.69716 16.9569 7.21625 17.5566L8.64984 18.123L7.82172 16.8232C7.46994 16.271 7.1644 15.585 6.92328 14.7939L6.82367 14.4482L6.74164 14.126L6.64496 13.75H3.08636L3.5639 14.5146ZM15.0004 12.916C14.0338 12.916 13.2504 13.6996 13.2504 14.666C13.2505 15.6324 14.0339 16.416 15.0004 16.416C15.9667 16.4158 16.7504 15.6323 16.7504 14.666C16.7504 13.6996 15.9668 12.9162 15.0004 12.916ZM2.63129 8.7002L2.62738 8.71387L2.62543 8.72266L2.62347 8.73047C2.4877 9.29852 2.41547 9.89141 2.41547 10.5C2.4155 11.3234 2.54718 12.1169 2.79047 12.8604L2.90179 13.1768L3.02386 13.5H6.0141L6.59418 13.499L6.50824 12.9258C6.39349 12.1604 6.33247 11.3448 6.33246 10.5C6.33246 9.94589 6.35813 9.40403 6.40863 8.88086L6.46234 8.33203H2.73187L2.63129 8.7002ZM7.22308 3.44043L7.20355 3.44727L7.19672 3.4502C5.37007 4.17719 3.89339 5.59295 3.08636 7.37695L2.76703 8.08301H6.50043L6.57465 7.6709C6.7962 6.43174 7.15896 5.35462 7.61957 4.51953L7.82269 4.17676L8.63519 2.90234L7.22308 3.44043ZM9.97699 2.91602L9.88129 2.91992L9.85785 2.92188C9.08759 2.99249 8.455 3.60943 7.98578 4.37695C7.50085 5.17017 7.11101 6.24737 6.86664 7.48633L6.74945 8.08301H13.2514L13.1332 7.48633C12.8895 6.2508 12.501 5.17631 12.018 4.38379C11.5797 3.66469 10.9997 3.0771 10.2973 2.94336L10.1547 2.92285L10.143 2.92188L10.1303 2.9209L10.0248 2.91602L10.0014 2.91406L9.97699 2.91602ZM12.1743 4.16895L12.2602 4.30957V4.31055C12.7785 5.1722 13.1859 6.32672 13.4262 7.6709L13.4995 8.08301H17.2328L16.9135 7.37695C16.1422 5.67168 14.7591 4.3032 13.0434 3.55078L13.0346 3.54688L12.7924 3.44531L11.3657 2.85156L12.1743 4.16895Z" fill="#4D5158" stroke="#B0B0B0"/>
</g>
</svg>
