<svg width="21" height="21" viewBox="0 0 21 21" fill="none" xmlns="http://www.w3.org/2000/svg">
<g id="location">
<path id="Vector" d="M15.4072 14.3018C15.9589 14.519 16.4251 14.7753 16.7764 15.0625L16.9199 15.1875C17.284 15.5266 17.5 15.9145 17.5 16.334C17.4999 16.7007 17.3348 17.0428 17.0498 17.3496L16.9199 17.4795C16.6022 17.7754 16.1653 18.0413 15.6387 18.2695L15.4072 18.3652C14.1452 18.8624 12.4101 19.167 10.5 19.167C8.70931 19.167 7.07247 18.8992 5.83496 18.4561L5.59277 18.3652C5.04107 18.1479 4.5749 17.8917 4.22363 17.6045L4.08008 17.4795C3.7161 17.1405 3.50014 16.7532 3.5 16.334C3.5 15.967 3.6651 15.6243 3.9502 15.3174L4.08008 15.1875C4.39789 14.8915 4.83478 14.6256 5.36133 14.3975L5.59277 14.3018C5.60022 14.2988 5.60775 14.2959 5.61523 14.293C5.6745 14.3606 5.73232 14.429 5.79199 14.4951L5.68457 14.5352C5.14791 14.7465 4.70732 14.9907 4.38281 15.2559L4.25098 15.3711H4.25C3.91628 15.6821 3.75 16.008 3.75 16.334C3.75012 16.6191 3.87751 16.9037 4.13281 17.1787L4.25 17.2959H4.25098C4.54188 17.5668 4.95114 17.8195 5.45996 18.04L5.68457 18.1318C6.91077 18.6149 8.61315 18.917 10.5 18.917C12.2689 18.917 13.8758 18.6519 15.0801 18.2207L15.3154 18.1318C15.8522 17.9204 16.2927 17.6763 16.6172 17.4111L16.749 17.2959H16.75C17.0835 16.9851 17.2499 16.6598 17.25 16.334C17.25 16.0487 17.1227 15.7634 16.8672 15.4883L16.75 15.3711H16.749C16.4581 15.1002 16.0489 14.8475 15.54 14.627L15.3154 14.5352C15.2799 14.5211 15.2433 14.5088 15.207 14.4951C15.2667 14.429 15.3245 14.3606 15.3838 14.293L15.4072 14.3018ZM10.5 2.66699C13.6756 2.66699 16.25 5.24135 16.25 8.41699C16.25 9.67466 15.6381 10.9386 14.8271 12.0635L14.4688 12.5361C13.6071 13.6215 12.593 14.5616 11.8164 15.2148L11.499 15.4766C10.9483 15.9234 10.1908 15.9514 9.61426 15.5605L9.50098 15.4766C8.80022 14.9081 7.8064 14.033 6.90918 12.9922L6.53125 12.5361C5.54932 11.2993 4.75 9.85418 4.75 8.41699C4.75 5.24135 7.32436 2.66699 10.5 2.66699ZM10.5 2.91699C7.46243 2.91699 5 5.37942 5 8.41699C5 9.59918 5.57841 10.8107 6.37402 11.915L6.72754 12.3809C7.5754 13.4487 8.57578 14.3766 9.34473 15.0234L9.6582 15.2822C10.1229 15.6593 10.7599 15.6834 11.2461 15.3535L11.3418 15.2822C12.0366 14.7185 13.0181 13.8546 13.9014 12.8301L14.2725 12.3809C15.2441 11.1569 16 9.76798 16 8.41699C16 5.37942 13.5376 2.91699 10.5 2.91699ZM10.5 6.41699C11.6046 6.41699 12.5 7.31242 12.5 8.41699C12.5 9.5216 11.6046 10.417 10.5 10.417C9.39539 10.417 8.5 9.5216 8.5 8.41699C8.5 7.31242 9.3954 6.41699 10.5 6.41699ZM10.5 6.66699C9.53353 6.66699 8.75 7.45049 8.75 8.41699C8.75 9.38347 9.53352 10.167 10.5 10.167C11.4665 10.167 12.25 9.38347 12.25 8.41699C12.25 7.45049 11.4665 6.66699 10.5 6.66699Z" fill="#4D5158" stroke="#B0B0B0"/>
</g>
</svg>
