<svg width="20" height="21" viewBox="0 0 20 21" fill="none" xmlns="http://www.w3.org/2000/svg">
<g id="mail">
<path id="Vector" d="M15.6247 4.33301C16.7286 4.33301 17.6438 5.14322 17.8073 6.20117L17.8298 6.41602L17.8337 6.55469V14.458C17.8337 15.6331 16.9152 16.5937 15.7575 16.6621L15.6247 16.666H4.37469C3.27118 16.6659 2.35678 15.8563 2.19305 14.7988L2.17059 14.584L2.16669 14.4443V6.54102L2.17743 6.32324C2.28295 5.24713 3.16137 4.3978 4.24969 4.33691L4.24872 4.33594L4.38934 4.33301H15.6247ZM16.8503 7.86816L10.0583 11.4434C10.0287 11.4589 9.99483 11.4608 9.96356 11.4512L9.93134 11.4375L3.14911 7.86914L2.41669 7.4834V14.458C2.41669 15.4856 3.20778 16.3282 4.21454 16.4102L4.22528 16.4111H4.23505L4.35516 16.416H15.6247C16.6524 16.416 17.4951 15.6251 17.5768 14.6182L17.5778 14.6084V14.5977L17.5827 14.4785L17.5837 14.4678V7.48242L16.8503 7.86816ZM4.37469 4.58301C3.34727 4.58317 2.50547 5.37423 2.42352 6.38086L2.42255 6.3916L2.42157 6.40137L2.41669 6.52148V7.20117L2.68427 7.34082L9.76727 11.0693L9.99969 11.1914L10.2331 11.0693L17.3161 7.34082L17.5837 7.2002V6.54102C17.5835 5.51344 16.7917 4.67158 15.7849 4.58984L15.7751 4.58887L15.7643 4.58789L15.6452 4.58301H4.37469Z" fill="#4D5158" stroke="#B0B0B0"/>
</g>
</svg>
