<svg width="20" height="21" viewBox="0 0 20 21" fill="none" xmlns="http://www.w3.org/2000/svg">
<g id="User">
<path id="Vector" d="M5.21063 12.667H14.7956C15.5544 12.6671 16.1696 13.2822 16.1696 14.041V14.5205C16.1696 15.0682 15.9978 15.5999 15.6823 16.043L15.5388 16.2275C14.3547 17.6108 12.5264 18.3349 10.0007 18.335C7.63188 18.335 5.87747 17.6983 4.69403 16.4785L4.46552 16.2275V16.2266C4.05982 15.7514 3.83662 15.1473 3.83661 14.5225V14.041C3.83664 13.2821 4.45179 12.667 5.21063 12.667ZM5.21063 12.917C4.58985 12.917 4.08664 13.4203 4.08661 14.041V14.5225C4.08662 15.0174 4.2413 15.4979 4.52606 15.8984L4.65594 16.0645C5.82801 17.437 7.6316 18.085 10.0007 18.085C12.2216 18.0849 13.9461 17.5152 15.1208 16.3135L15.3483 16.0654C15.7167 15.6351 15.9196 15.0868 15.9196 14.5205V14.041C15.9196 13.4203 15.4163 12.9171 14.7956 12.917H5.21063ZM10.0007 2.6709C12.0255 2.67107 13.6667 4.31296 13.6667 6.33789C13.6665 8.36268 12.0254 10.0037 10.0007 10.0039C7.97571 10.0039 6.33386 8.36279 6.33368 6.33789C6.33368 4.31285 7.97559 2.6709 10.0007 2.6709ZM10.0007 2.9209C8.1137 2.9209 6.58368 4.45092 6.58368 6.33789C6.58386 8.22472 8.11381 9.75391 10.0007 9.75391C11.8874 9.75373 13.4165 8.22461 13.4167 6.33789C13.4167 4.45103 11.8875 2.92107 10.0007 2.9209Z" fill="#8192AB" stroke="#8192AB"/>
</g>
</svg>
