<svg width="21" height="21" viewBox="0 0 21 21" fill="none" xmlns="http://www.w3.org/2000/svg">
<g id="zipcode">
<path id="Vector" d="M4.87468 3.5H7.27409C7.59311 3.50004 7.90056 3.61109 8.14518 3.81152L8.24577 3.90234L9.92643 5.58301H16.1247C17.3443 5.58301 18.3337 6.57236 18.3337 7.79199V15.292C18.3335 16.5114 17.3442 17.5 16.1247 17.5H4.87468C3.6553 17.4998 2.66684 16.5113 2.66667 15.292V5.70801C2.66684 4.48863 3.6553 3.50018 4.87468 3.5ZM8.24577 7.51367C7.98796 7.77145 7.63866 7.91694 7.27409 7.91699H2.91667V15.292C2.91684 16.3733 3.79337 17.2498 4.87468 17.25H13.4997V14.583H12.7917C12.7226 14.583 12.6667 14.527 12.6667 14.458C12.6668 14.3891 12.7228 14.333 12.7917 14.333H13.4997V12.083H12.7917C12.7226 12.083 12.6667 12.027 12.6667 11.958C12.6668 11.8891 12.7228 11.833 12.7917 11.833H13.4997V9.16699H12.3747C12.3059 9.16682 12.2499 9.11076 12.2497 9.04199V5.83301H9.92643L8.24577 7.51367ZM14.9997 9.04199C14.9995 9.11087 14.9436 9.16699 14.8747 9.16699H13.7497V13.083H14.4587C14.5274 13.0832 14.5835 13.1392 14.5837 13.208C14.5837 13.2769 14.5275 13.3328 14.4587 13.333H13.7497V17.25H16.1247C17.2061 17.25 18.0835 16.3734 18.0837 15.292V7.79199C18.0837 6.71043 17.2062 5.83301 16.1247 5.83301H14.9997V9.04199ZM12.4997 8.91699H14.7497V5.83301H12.4997V8.91699ZM4.87468 3.75C3.79337 3.75018 2.91684 4.62671 2.91667 5.70801V7.66699H7.27409C7.53507 7.66695 7.78685 7.57607 7.98698 7.41211L8.06901 7.33691L9.69792 5.70801L8.06901 4.0791C7.85812 3.86842 7.5722 3.75005 7.27409 3.75H4.87468Z" fill="#4D5158" stroke="#B0B0B0"/>
</g>
</svg>
