<svg width="21" height="21" viewBox="0 0 21 21" fill="none" xmlns="http://www.w3.org/2000/svg">
<path d="M12.1626 9.66666C12.1626 10.3645 11.7337 10.9621 11.125 11.2102V13.2083C11.125 13.5535 10.8452 13.8333 10.5 13.8333C10.1548 13.8333 9.875 13.5535 9.875 13.2083V11.2132C9.2625 10.9669 8.83002 10.3673 8.83002 9.66666C8.83002 8.74639 9.57608 8.00037 10.4963 8.00037C11.4166 8.00037 12.1626 8.74639 12.1626 9.66666ZM3.625 4.66666C3.27983 4.66666 3 4.94648 3 5.29166V9.66666C3 13.8343 5.46463 16.8964 10.2709 18.7898C10.4182 18.8478 10.5818 18.8478 10.7291 18.7898C15.5353 16.8964 18 13.8343 18 9.66666V5.29166C18 4.94648 17.7202 4.66666 17.375 4.66666C15.1555 4.66666 12.9933 3.88042 10.875 2.29166C10.6527 2.12499 10.3472 2.12499 10.125 2.29166C8.00664 3.88042 5.84451 4.66666 3.625 4.66666ZM4.25 9.66666V5.89826C6.39779 5.77153 8.48403 4.99023 10.5 3.56484C12.516 4.99023 14.6023 5.77153 16.75 5.89826V9.66666C16.75 13.213 14.7055 15.8157 10.5 17.5349C6.29448 15.8157 4.25 13.213 4.25 9.66666Z" fill="#059669"/>
</svg>
