<svg width="10" height="6" viewBox="0 0 10 6" fill="none" xmlns="http://www.w3.org/2000/svg">
<path fill-rule="evenodd" clip-rule="evenodd" d="M5.54671 5.65633C5.40607 5.79693 5.21533 5.87592 5.01646 5.87592C4.81759 5.87592 4.62686 5.79693 4.48621 5.65633L0.243462 1.41358C0.17183 1.3444 0.114693 1.26164 0.075386 1.17013C0.0360792 1.07863 0.0153895 0.980217 0.0145242 0.880632C0.0136588 0.781048 0.0326353 0.682288 0.0703459 0.590116C0.108057 0.497944 0.163746 0.414204 0.234166 0.343785C0.304585 0.273365 0.388324 0.217675 0.480496 0.179965C0.572669 0.142254 0.671429 0.123278 0.771013 0.124143C0.870597 0.125009 0.969012 0.145698 1.06052 0.185005C1.15202 0.224312 1.23478 0.281448 1.30396 0.353081L5.01646 4.06558L8.72896 0.353081C8.87041 0.216462 9.05986 0.140867 9.25651 0.142575C9.45316 0.144284 9.64127 0.223161 9.78033 0.362217C9.91938 0.501273 9.99826 0.689383 9.99997 0.88603C10.0017 1.08268 9.92608 1.27213 9.78946 1.41358L5.54671 5.65633Z" fill="#011732"/>
</svg>
