<svg width="20" height="21" viewBox="0 0 20 21" fill="none" xmlns="http://www.w3.org/2000/svg">
<path d="M11.6626 9.66666C11.6626 10.3645 11.2337 10.9621 10.625 11.2102V13.2083C10.625 13.5535 10.3452 13.8333 10 13.8333C9.65483 13.8333 9.375 13.5535 9.375 13.2083V11.2132C8.7625 10.9669 8.33002 10.3673 8.33002 9.66666C8.33002 8.74639 9.07608 8.00037 9.99633 8.00037C10.9166 8.00037 11.6626 8.74639 11.6626 9.66666ZM3.125 4.66666C2.77983 4.66666 2.5 4.94648 2.5 5.29166V9.66666C2.5 13.8343 4.96463 16.8964 9.77092 18.7898C9.91817 18.8478 10.0818 18.8478 10.2291 18.7898C15.0353 16.8964 17.5 13.8343 17.5 9.66666V5.29166C17.5 4.94648 17.2202 4.66666 16.875 4.66666C14.6555 4.66666 12.4933 3.88042 10.375 2.29166C10.1527 2.12499 9.84725 2.12499 9.625 2.29166C7.50664 3.88042 5.34451 4.66666 3.125 4.66666ZM3.75 9.66666V5.89826C5.89779 5.77153 7.98403 4.99023 10 3.56484C12.016 4.99023 14.1023 5.77153 16.25 5.89826V9.66666C16.25 13.213 14.2055 15.8157 10 17.5349C5.79448 15.8157 3.75 13.213 3.75 9.66666Z" fill="#3978D7"/>
</svg>
