<svg width="19" height="18" viewBox="0 0 19 18" fill="none" xmlns="http://www.w3.org/2000/svg">
<path d="M10.8117 13.8752L16.477 13.8748L16.5522 13.8644L16.6264 13.8437L16.6716 13.8245C16.731 13.7984 16.7866 13.7603 16.8356 13.7114L16.8661 13.6784L16.8988 13.6361L16.9394 13.5685L16.9684 13.5008L16.9827 13.4527L16.993 13.4047L17 13.334L17.0003 7.68473C17.0003 7.37409 16.7485 7.12225 16.4378 7.12225C16.1531 7.12225 15.9177 7.33387 15.8805 7.60845L15.8753 7.68473L15.875 11.9559L10.0859 6.16572C9.88618 5.96602 9.57365 5.94785 9.35345 6.11124L9.29037 6.16571L7.06251 8.39348L2.96025 4.29122C2.74058 4.07155 2.38442 4.07155 2.16475 4.29122C1.96505 4.49092 1.9469 4.80341 2.11029 5.02362L2.16475 5.08671L6.66475 9.58673C6.86445 9.78638 7.17694 9.8046 7.39715 9.64118L7.46024 9.58673L9.6881 7.35896L15.0785 12.7502H10.8117C10.5269 12.7502 10.2916 12.9618 10.2544 13.2364L10.2492 13.3127C10.2492 13.5974 10.4608 13.8328 10.7354 13.8701L10.8117 13.8752Z" fill="#DC3545"/>
</svg>
