<svg width="20" height="20" viewBox="0 0 20 20" fill="none" xmlns="http://www.w3.org/2000/svg">
<g clip-path="url(#clip0_1002_5157)">
<path d="M18.75 1.87281L13.7456 1.87283V0.627205C13.7456 0.281892 13.4659 0.0022049 13.1206 0.0022049C12.7753 0.0022049 12.4956 0.281892 12.4956 0.627205V1.87252H7.49563V0.627205C7.49563 0.281892 7.21594 0.0022049 6.87063 0.0022049C6.52531 0.0022049 6.24563 0.281892 6.24563 0.627205V1.87252H1.25C0.559687 1.87252 0 2.4322 0 3.12252V18.7475C0 19.4378 0.559687 19.9975 1.25 19.9975H18.75C19.4403 19.9975 20 19.4378 20 18.7475V3.12252C20 2.4325 19.4403 1.87281 18.75 1.87281ZM18.75 18.7475H1.25V3.12252H6.24563V3.75221C6.24563 4.0975 6.52531 4.37721 6.87063 4.37721C7.21594 4.37721 7.49563 4.0975 7.49563 3.75221V3.12283H12.4956V3.75252C12.4956 4.09783 12.7753 4.37752 13.1206 4.37752C13.4659 4.37752 13.7456 4.09783 13.7456 3.75252V3.12283H18.75V18.7475ZM14.375 9.99781H15.625C15.97 9.99781 16.25 9.71781 16.25 9.37281V8.12281C16.25 7.77781 15.97 7.49781 15.625 7.49781H14.375C14.03 7.49781 13.75 7.77781 13.75 8.12281V9.37281C13.75 9.71781 14.03 9.99781 14.375 9.99781ZM14.375 14.9975H15.625C15.97 14.9975 16.25 14.7178 16.25 14.3725V13.1225C16.25 12.7775 15.97 12.4975 15.625 12.4975H14.375C14.03 12.4975 13.75 12.7775 13.75 13.1225V14.3725C13.75 14.7181 14.03 14.9975 14.375 14.9975ZM10.625 12.4975H9.375C9.03 12.4975 8.75 12.7775 8.75 13.1225V14.3725C8.75 14.7178 9.03 14.9975 9.375 14.9975H10.625C10.97 14.9975 11.25 14.7178 11.25 14.3725V13.1225C11.25 12.7778 10.97 12.4975 10.625 12.4975ZM10.625 7.49781H9.375C9.03 7.49781 8.75 7.77781 8.75 8.12281V9.37281C8.75 9.71781 9.03 9.99781 9.375 9.99781H10.625C10.97 9.99781 11.25 9.71781 11.25 9.37281V8.12281C11.25 7.7775 10.97 7.49781 10.625 7.49781ZM5.625 7.49781H4.375C4.03 7.49781 3.75 7.77781 3.75 8.12281V9.37281C3.75 9.71781 4.03 9.99781 4.375 9.99781H5.625C5.97 9.99781 6.25 9.71781 6.25 9.37281V8.12281C6.25 7.7775 5.97 7.49781 5.625 7.49781ZM5.625 12.4975H4.375C4.03 12.4975 3.75 12.7775 3.75 13.1225V14.3725C3.75 14.7178 4.03 14.9975 4.375 14.9975H5.625C5.97 14.9975 6.25 14.7178 6.25 14.3725V13.1225C6.25 12.7778 5.97 12.4975 5.625 12.4975Z" fill="#234BAA"/>
</g>
<defs>
<clipPath id="clip0_1002_5157">
<rect width="20" height="20" fill="white"/>
</clipPath>
</defs>
</svg>
