<svg width="19" height="18" viewBox="0 0 19 18" fill="none" xmlns="http://www.w3.org/2000/svg">
<path d="M10.8117 4.125L16.477 4.12539L16.5522 4.13583L16.6264 4.15654L16.6716 4.1757C16.731 4.20184 16.7866 4.23986 16.8356 4.28877L16.8661 4.3218L16.8988 4.36408L16.9394 4.43167L16.9684 4.49941L16.9827 4.54748L16.993 4.59547L17 4.66612L17.0003 10.3154C17.0003 10.6261 16.7485 10.8779 16.4378 10.8779C16.1531 10.8779 15.9177 10.6663 15.8805 10.3918L15.8753 10.3154L15.875 6.04425L10.0859 11.8345C9.88618 12.0341 9.57365 12.0524 9.35345 11.8889L9.29037 11.8345L7.06251 9.60668L2.96025 13.709C2.74058 13.9286 2.38442 13.9286 2.16475 13.709C1.96505 13.5092 1.9469 13.1968 2.11029 12.9766L2.16475 12.9134L6.66475 8.41343C6.86445 8.21378 7.17694 8.19562 7.39715 8.35897L7.46024 8.41343L9.6881 10.6412L15.0785 5.25H10.8117C10.5269 5.25 10.2916 5.03839 10.2544 4.76383L10.2492 4.6875C10.2492 4.40272 10.4608 4.16738 10.7354 4.13014L10.8117 4.125Z" fill="#3978D7"/>
</svg>
