<svg width="13" height="12" viewBox="0 0 13 12" fill="none" xmlns="http://www.w3.org/2000/svg">
<path d="M4.36433 1.72884C3.97796 1.72884 3.66476 2.04205 3.66476 2.42838C3.66476 2.81471 3.97796 3.12792 4.36433 3.12792C4.75071 3.12792 5.06391 2.81471 5.06391 2.42838C5.06391 2.04205 4.75071 1.72884 4.36433 1.72884ZM2.96522 2.42838C2.96522 1.65568 3.59163 1.0293 4.36433 1.0293C5.13703 1.0293 5.76343 1.65568 5.76343 2.42838C5.76343 3.20108 5.13703 3.82746 4.36433 3.82746C3.59163 3.82746 2.96522 3.20108 2.96522 2.42838ZM2.62377 4.29382C2.16844 4.29382 1.79932 4.66294 1.79932 5.11826V5.28587C1.79931 5.38301 1.79929 5.94287 2.12617 6.48698C2.38118 6.91141 2.81438 7.29257 3.51332 7.4634C3.60931 7.20732 3.78432 6.9899 4.00866 6.84071C3.26068 6.76068 2.90723 6.42864 2.72581 6.12671C2.50007 5.75097 2.49886 5.35102 2.49886 5.28484V5.11826C2.49886 5.04928 2.55478 4.99336 2.62377 4.99336H4.61191C4.64338 4.74108 4.72521 4.50443 4.84705 4.29382H2.62377ZM8.07886 4.29382C8.20072 4.50443 8.28252 4.74108 8.314 4.99336H10.3021C10.3711 4.99336 10.427 5.04928 10.427 5.11826V5.28484C10.427 5.35102 10.4258 5.75097 10.2001 6.12671C10.0186 6.42864 9.66514 6.76068 8.91719 6.84071C9.14151 6.9899 9.31654 7.20732 9.41252 7.4634C10.1115 7.29257 10.5447 6.91141 10.7997 6.48698C11.1266 5.94287 11.1265 5.38301 11.1265 5.28587V5.11826C11.1265 4.66294 10.7574 4.29382 10.3021 4.29382H8.07886ZM7.86201 2.42838C7.86201 2.04205 8.17521 1.72884 8.56159 1.72884C8.94797 1.72884 9.26114 2.04205 9.26114 2.42838C9.26114 2.81471 8.94797 3.12792 8.56159 3.12792C8.17521 3.12792 7.86201 2.81471 7.86201 2.42838ZM8.56159 1.0293C7.78888 1.0293 7.16247 1.65568 7.16247 2.42838C7.16247 3.20108 7.78888 3.82746 8.56159 3.82746C9.33426 3.82746 9.96068 3.20108 9.96068 2.42838C9.96068 1.65568 9.33426 1.0293 8.56159 1.0293ZM6.46297 4.527C6.07659 4.527 5.76338 4.84021 5.76338 5.22654C5.76338 5.61288 6.07659 5.92609 6.46297 5.92609C6.84935 5.92609 7.16251 5.61288 7.16251 5.22654C7.16251 4.84021 6.84935 4.527 6.46297 4.527ZM5.06384 5.22654C5.06384 4.45384 5.69026 3.82746 6.46297 3.82746C7.23564 3.82746 7.86205 4.45384 7.86205 5.22654C7.86205 5.99926 7.23564 6.62563 6.46297 6.62563C5.69026 6.62563 5.06384 5.99926 5.06384 5.22654ZM3.89794 7.91642C3.89794 7.46111 4.26706 7.09199 4.72239 7.09199H8.20348C8.65878 7.09199 9.02791 7.46111 9.02791 7.91642V8.08403C9.02791 8.18117 9.02796 8.74104 8.70104 9.28514C8.35532 9.86063 7.68199 10.3565 6.46292 10.3565C5.24384 10.3565 4.57054 9.86063 4.22479 9.28514C3.89791 8.74104 3.89794 8.18117 3.89794 8.08403V7.91642ZM4.72239 7.79153C4.65341 7.79153 4.59748 7.84745 4.59748 7.91642V8.083C4.59748 8.14918 4.59869 8.54913 4.82444 8.92488C5.03248 9.27115 5.46679 9.65697 6.46292 9.65697C7.45907 9.65697 7.89335 9.27115 8.10144 8.92488C8.32716 8.54913 8.32837 8.14918 8.32837 8.083V7.91642C8.32837 7.84745 8.27245 7.79153 8.20348 7.79153H4.72239Z" fill="#3978D7"/>
</svg>
