<svg width="13" height="13" viewBox="0 0 13 13" fill="none" xmlns="http://www.w3.org/2000/svg">
<path d="M4.66784 2.22412C4.25575 2.22412 3.92171 2.55817 3.92171 2.97021C3.92171 3.38226 4.25575 3.71631 4.66784 3.71631C5.07993 3.71631 5.41397 3.38226 5.41397 2.97021C5.41397 2.55817 5.07993 2.22412 4.66784 2.22412ZM3.17562 2.97021C3.17562 2.14609 3.84372 1.47803 4.66784 1.47803C5.49196 1.47803 6.16004 2.14609 6.16004 2.97021C6.16004 3.79434 5.49196 4.4624 4.66784 4.4624C3.84372 4.4624 3.17562 3.79434 3.17562 2.97021ZM2.81145 4.9598C2.32581 4.9598 1.93213 5.35348 1.93213 5.83909V6.01786C1.93212 6.12147 1.9321 6.71859 2.28073 7.2989C2.55271 7.75158 3.01474 8.1581 3.76019 8.3403C3.86257 8.06718 4.04923 7.83529 4.2885 7.67618C3.49074 7.59082 3.11377 7.23668 2.92028 6.91466C2.67952 6.51391 2.67822 6.08734 2.67822 6.01676V5.83909C2.67822 5.76553 2.73787 5.70589 2.81145 5.70589H4.9319C4.96545 5.43682 5.05274 5.18442 5.18268 4.9598H2.81145ZM8.62956 4.9598C8.75953 5.18442 8.84678 5.43682 8.88035 5.70589H11.0007C11.0743 5.70589 11.134 5.76553 11.134 5.83909V6.01676C11.134 6.08734 11.1327 6.51391 10.8919 6.91466C10.6984 7.23668 10.3214 7.59082 9.52368 7.67618C9.76293 7.83529 9.9496 8.06718 10.052 8.3403C10.7974 8.1581 11.2594 7.75158 11.5314 7.2989C11.8801 6.71859 11.88 6.12147 11.88 6.01786V5.83909C11.88 5.35348 11.4864 4.9598 11.0007 4.9598H8.62956ZM8.39827 2.97021C8.39827 2.55817 8.73233 2.22412 9.14442 2.22412C9.55651 2.22412 9.89051 2.55817 9.89051 2.97021C9.89051 3.38226 9.55651 3.71631 9.14442 3.71631C8.73233 3.71631 8.39827 3.38226 8.39827 2.97021ZM9.14442 1.47803C8.32028 1.47803 7.65218 2.14609 7.65218 2.97021C7.65218 3.79434 8.32028 4.4624 9.14442 4.4624C9.9685 4.4624 10.6366 3.79434 10.6366 2.97021C10.6366 2.14609 9.9685 1.47803 9.14442 1.47803ZM6.90614 5.2085C6.49404 5.2085 6.15999 5.54255 6.15999 5.95459C6.15999 6.36663 6.49404 6.70068 6.90614 6.70068C7.31823 6.70068 7.65223 6.36663 7.65223 5.95459C7.65223 5.54255 7.31823 5.2085 6.90614 5.2085ZM5.4139 5.95459C5.4139 5.13046 6.082 4.4624 6.90614 4.4624C7.73022 4.4624 8.39832 5.13046 8.39832 5.95459C8.39832 6.77872 7.73022 7.44678 6.90614 7.44678C6.082 7.44678 5.4139 6.77872 5.4139 5.95459ZM4.17041 8.82347C4.17041 8.33786 4.56409 7.94417 5.04973 7.94417H8.76247C9.24808 7.94417 9.64176 8.33786 9.64176 8.82347V9.00223C9.64176 9.10584 9.64181 9.70296 9.29314 10.2833C8.92442 10.8971 8.20628 11.4259 6.90609 11.4259C5.60588 11.4259 4.88777 10.8971 4.51901 10.2833C4.17038 9.70296 4.17041 9.10584 4.17041 9.00223V8.82347ZM5.04973 8.69027C4.97615 8.69027 4.9165 8.7499 4.9165 8.82347V9.00114C4.9165 9.07172 4.9178 9.49829 5.15856 9.89904C5.38046 10.2684 5.84366 10.6798 6.90609 10.6798C7.96852 10.6798 8.4317 10.2684 8.65364 9.89904C8.89438 9.49829 8.89567 9.07172 8.89567 9.00114V8.82347C8.89567 8.7499 8.83603 8.69027 8.76247 8.69027H5.04973Z" fill="#713AED"/>
</svg>
