<svg width="12" height="12" viewBox="0 0 12 12" fill="none" xmlns="http://www.w3.org/2000/svg">
<path d="M4.05086 1.72884C3.66448 1.72884 3.35128 2.04205 3.35128 2.42838C3.35128 2.81471 3.66448 3.12792 4.05086 3.12792C4.43723 3.12792 4.75043 2.81471 4.75043 2.42838C4.75043 2.04205 4.43723 1.72884 4.05086 1.72884ZM2.65174 2.42838C2.65174 1.65568 3.27816 1.0293 4.05086 1.0293C4.82356 1.0293 5.44995 1.65568 5.44995 2.42838C5.44995 3.20108 4.82356 3.82746 4.05086 3.82746C3.27816 3.82746 2.65174 3.20108 2.65174 2.42838ZM2.31029 4.29382C1.85496 4.29382 1.48584 4.66294 1.48584 5.11826V5.28587C1.48584 5.38301 1.48581 5.94287 1.81269 6.48698C2.0677 6.91141 2.5009 7.29257 3.19984 7.4634C3.29583 7.20732 3.47084 6.9899 3.69519 6.84071C2.9472 6.76068 2.59375 6.42864 2.41234 6.12671C2.18659 5.75097 2.18538 5.35102 2.18538 5.28484V5.11826C2.18538 5.04928 2.24131 4.99336 2.31029 4.99336H4.29844C4.3299 4.74108 4.41174 4.50443 4.53357 4.29382H2.31029ZM7.76539 4.29382C7.88725 4.50443 7.96905 4.74108 8.00053 4.99336H9.98862C10.0576 4.99336 10.1135 5.04928 10.1135 5.11826V5.28484C10.1135 5.35102 10.1123 5.75097 9.88658 6.12671C9.70517 6.42864 9.35167 6.76068 8.60372 6.84071C8.82804 6.9899 9.00306 7.20732 9.09904 7.4634C9.79797 7.29257 10.2312 6.91141 10.4862 6.48698C10.8131 5.94287 10.8131 5.38301 10.8131 5.28587V5.11826C10.8131 4.66294 10.4439 4.29382 9.98862 4.29382H7.76539ZM7.54853 2.42838C7.54853 2.04205 7.86174 1.72884 8.24812 1.72884C8.6345 1.72884 8.94766 2.04205 8.94766 2.42838C8.94766 2.81471 8.6345 3.12792 8.24812 3.12792C7.86174 3.12792 7.54853 2.81471 7.54853 2.42838ZM8.24812 1.0293C7.4754 1.0293 6.84899 1.65568 6.84899 2.42838C6.84899 3.20108 7.4754 3.82746 8.24812 3.82746C9.02078 3.82746 9.6472 3.20108 9.6472 2.42838C9.6472 1.65568 9.02078 1.0293 8.24812 1.0293ZM6.14949 4.527C5.76311 4.527 5.44991 4.84021 5.44991 5.22654C5.44991 5.61288 5.76311 5.92609 6.14949 5.92609C6.53587 5.92609 6.84904 5.61288 6.84904 5.22654C6.84904 4.84021 6.53587 4.527 6.14949 4.527ZM4.75037 5.22654C4.75037 4.45384 5.37678 3.82746 6.14949 3.82746C6.92216 3.82746 7.54858 4.45384 7.54858 5.22654C7.54858 5.99926 6.92216 6.62563 6.14949 6.62563C5.37678 6.62563 4.75037 5.99926 4.75037 5.22654ZM3.58446 7.91642C3.58446 7.46111 3.95358 7.09199 4.40892 7.09199H7.89C8.34531 7.09199 8.71443 7.46111 8.71443 7.91642V8.08403C8.71443 8.18117 8.71448 8.74104 8.38756 9.28514C8.04185 9.86063 7.36852 10.3565 6.14945 10.3565C4.93037 10.3565 4.25707 9.86063 3.91131 9.28514C3.58444 8.74104 3.58446 8.18117 3.58446 8.08403V7.91642ZM4.40892 7.79153C4.33993 7.79153 4.284 7.84745 4.284 7.91642V8.083C4.284 8.14918 4.28522 8.54913 4.51096 8.92488C4.71901 9.27115 5.15332 9.65697 6.14945 9.65697C7.14559 9.65697 7.57987 9.27115 7.78796 8.92488C8.01368 8.54913 8.01489 8.14918 8.01489 8.083V7.91642C8.01489 7.84745 7.95897 7.79153 7.89 7.79153H4.40892Z" fill="#E29400"/>
</svg>
