<svg width="12" height="12" viewBox="0 0 12 12" fill="none" xmlns="http://www.w3.org/2000/svg">
<path d="M3.6783 1.72884C3.29192 1.72884 2.97872 2.04205 2.97872 2.42838C2.97872 2.81471 3.29192 3.12792 3.6783 3.12792C4.06467 3.12792 4.37787 2.81471 4.37787 2.42838C4.37787 2.04205 4.06467 1.72884 3.6783 1.72884ZM2.27918 2.42838C2.27918 1.65568 2.9056 1.0293 3.6783 1.0293C4.451 1.0293 5.07739 1.65568 5.07739 2.42838C5.07739 3.20108 4.451 3.82746 3.6783 3.82746C2.9056 3.82746 2.27918 3.20108 2.27918 2.42838ZM1.93773 4.29382C1.4824 4.29382 1.11328 4.66294 1.11328 5.11826V5.28587C1.11328 5.38301 1.11325 5.94287 1.44013 6.48698C1.69515 6.91141 2.12834 7.29257 2.82728 7.4634C2.92327 7.20732 3.09829 6.9899 3.32263 6.84071C2.57465 6.76068 2.22119 6.42864 2.03978 6.12671C1.81404 5.75097 1.81282 5.35102 1.81282 5.28484V5.11826C1.81282 5.04928 1.86875 4.99336 1.93773 4.99336H3.92588C3.95734 4.74108 4.03918 4.50443 4.16101 4.29382H1.93773ZM7.39283 4.29382C7.51469 4.50443 7.59649 4.74108 7.62797 4.99336H9.61607C9.68504 4.99336 9.74096 5.04928 9.74096 5.11826V5.28484C9.74096 5.35102 9.73974 5.75097 9.51402 6.12671C9.33261 6.42864 8.97911 6.76068 8.23116 6.84071C8.45548 6.9899 8.6305 7.20732 8.72648 7.4634C9.42542 7.29257 9.85862 6.91141 10.1136 6.48698C10.4405 5.94287 10.4405 5.38301 10.4405 5.28587V5.11826C10.4405 4.66294 10.0714 4.29382 9.61607 4.29382H7.39283ZM7.17597 2.42838C7.17597 2.04205 7.48918 1.72884 7.87556 1.72884C8.26194 1.72884 8.5751 2.04205 8.5751 2.42838C8.5751 2.81471 8.26194 3.12792 7.87556 3.12792C7.48918 3.12792 7.17597 2.81471 7.17597 2.42838ZM7.87556 1.0293C7.10285 1.0293 6.47643 1.65568 6.47643 2.42838C6.47643 3.20108 7.10285 3.82746 7.87556 3.82746C8.64823 3.82746 9.27464 3.20108 9.27464 2.42838C9.27464 1.65568 8.64823 1.0293 7.87556 1.0293ZM5.77694 4.527C5.39056 4.527 5.07735 4.84021 5.07735 5.22654C5.07735 5.61288 5.39056 5.92609 5.77694 5.92609C6.16332 5.92609 6.47648 5.61288 6.47648 5.22654C6.47648 4.84021 6.16332 4.527 5.77694 4.527ZM4.37781 5.22654C4.37781 4.45384 5.00422 3.82746 5.77694 3.82746C6.5496 3.82746 7.17602 4.45384 7.17602 5.22654C7.17602 5.99926 6.5496 6.62563 5.77694 6.62563C5.00422 6.62563 4.37781 5.99926 4.37781 5.22654ZM3.21191 7.91642C3.21191 7.46111 3.58102 7.09199 4.03636 7.09199H7.51744C7.97275 7.09199 8.34187 7.46111 8.34187 7.91642V8.08403C8.34187 8.18117 8.34192 8.74104 8.015 9.28514C7.66929 9.86063 6.99596 10.3565 5.77689 10.3565C4.55781 10.3565 3.88451 9.86063 3.53875 9.28514C3.21188 8.74104 3.2119 8.18117 3.21191 8.08403V7.91642ZM4.03636 7.79153C3.96737 7.79153 3.91145 7.84745 3.91145 7.91642V8.083C3.91145 8.14918 3.91266 8.54913 4.1384 8.92488C4.34645 9.27115 4.78076 9.65697 5.77689 9.65697C6.77304 9.65697 7.20731 9.27115 7.4154 8.92488C7.64112 8.54913 7.64233 8.14918 7.64233 8.083V7.91642C7.64233 7.84745 7.58642 7.79153 7.51744 7.79153H4.03636Z" fill="#059669"/>
</svg>
