<svg width="13" height="12" viewBox="0 0 13 12" fill="none" xmlns="http://www.w3.org/2000/svg">
<path d="M6.52176 1.02832C9.0978 1.02832 11.1861 3.11661 11.1861 5.69265C11.1861 8.26869 9.0978 10.357 6.52176 10.357C3.94571 10.357 1.85742 8.26869 1.85742 5.69265C1.85742 3.11661 3.94571 1.02832 6.52176 1.02832ZM7.89235 7.79114H5.15116C5.45525 8.91702 5.98381 9.65742 6.52176 9.65742C7.05971 9.65742 7.58823 8.91702 7.89235 7.79114ZM4.427 7.79142L3.15734 7.79137C3.60427 8.5063 4.27278 9.06854 5.0667 9.38194C4.82313 8.99962 4.62213 8.52099 4.4743 7.97563L4.427 7.79142ZM9.88618 7.79137L8.61651 7.79142C8.4655 8.41345 8.24743 8.95713 7.97629 9.38194C8.72107 9.08813 9.35518 8.5756 9.79981 7.92358L9.88618 7.79137ZM4.23352 4.75963H2.66766L2.66544 4.76767C2.59451 5.06442 2.55696 5.37413 2.55696 5.69265C2.55696 6.18522 2.64677 6.65676 2.81092 7.09187L4.29076 7.09169C4.2244 6.64906 4.18923 6.17888 4.18923 5.69265C4.18923 5.37366 4.20436 5.06157 4.23352 4.75963ZM8.10594 4.75965H4.93756C4.90584 5.05826 4.88876 5.37058 4.88876 5.69265C4.88876 6.18676 4.92894 6.65793 5.00057 7.09178H8.04293C8.11457 6.65793 8.15472 6.18676 8.15472 5.69265C8.15472 5.37058 8.13765 5.05826 8.10594 4.75965ZM10.376 4.75924L8.81 4.75964C8.83915 5.06157 8.85426 5.37366 8.85426 5.69265C8.85426 6.17888 8.8191 6.64906 8.75273 7.09169L10.2326 7.09187C10.3967 6.65676 10.4865 6.18522 10.4865 5.69265C10.4865 5.37114 10.4483 5.05859 10.376 4.75924ZM5.0672 2.00334L5.05651 2.00741C4.10173 2.38736 3.32942 3.12762 2.90752 4.06027L4.32905 4.06044C4.47518 3.24301 4.73021 2.53138 5.0672 2.00334ZM6.52176 1.72786L6.4678 1.73033C5.87767 1.78431 5.30755 2.71795 5.04279 4.06025H8.00073C7.73667 2.72172 7.16902 1.78955 6.58066 1.7308L6.52176 1.72786ZM7.9768 2.00337L8.02661 2.08456C8.3387 2.60337 8.5757 3.2842 8.71445 4.06044L10.136 4.06027C9.73275 3.16887 9.00942 2.45322 8.11261 2.05992L7.9768 2.00337Z" fill="#713AED"/>
</svg>
