<svg width="12" height="12" viewBox="0 0 12 12" fill="none" xmlns="http://www.w3.org/2000/svg">
<path d="M6.76587 5.22654C6.76587 5.61707 6.52583 5.9515 6.1852 6.09038V7.20858C6.1852 7.40174 6.0286 7.55835 5.83543 7.55835C5.64226 7.55835 5.48566 7.40174 5.48566 7.20858V6.09206C5.14289 5.95421 4.90086 5.61866 4.90086 5.22654C4.90086 4.71153 5.31838 4.29404 5.83338 4.29404C6.34838 4.29404 6.76587 4.71153 6.76587 5.22654ZM1.98795 2.42838C1.79478 2.42838 1.63818 2.58498 1.63818 2.77815V5.22654C1.63818 7.55891 3.01747 9.27255 5.70723 10.3322C5.78963 10.3646 5.88123 10.3646 5.96363 10.3322C8.65337 9.27255 10.0327 7.55891 10.0327 5.22654V2.77815C10.0327 2.58498 9.87607 2.42838 9.68291 2.42838C8.4408 2.42838 7.23078 1.98838 6.04529 1.09925C5.92092 1.00598 5.74995 1.00598 5.62557 1.09925C4.44007 1.98838 3.23006 2.42838 1.98795 2.42838ZM2.33772 5.22654V3.11763C3.5397 3.0467 4.70723 2.60946 5.83543 1.81177C6.96365 2.60946 8.13119 3.0467 9.33314 3.11763V5.22654C9.33314 7.21119 8.18897 8.66777 5.83543 9.62988C3.48188 8.66777 2.33772 7.21119 2.33772 5.22654Z" fill="#D32F2F"/>
</svg>
