<svg width="55" height="46" viewBox="0 0 55 46" fill="none" xmlns="http://www.w3.org/2000/svg">
<path d="M42.5 33.3125C43.2223 33.3129 43.9167 33.5911 44.4395 34.0895C44.9622 34.588 45.2731 35.2684 45.3079 35.9898C45.3426 36.7113 45.0984 37.4184 44.6259 37.9648C44.1535 38.5111 43.4889 38.8547 42.77 38.9244L42.5 38.9375H12.5C11.7777 38.9371 11.0833 38.6589 10.5605 38.1605C10.0378 37.662 9.72685 36.9816 9.69214 36.2602C9.65743 35.5387 9.90161 34.8316 10.3741 34.2852C10.8465 33.7389 11.5111 33.3953 12.23 33.3256L12.5 33.3125H42.5ZM42.5 20.1875C43.2459 20.1875 43.9613 20.4838 44.4887 21.0113C45.0162 21.5387 45.3125 22.2541 45.3125 23C45.3125 23.7459 45.0162 24.4613 44.4887 24.9887C43.9613 25.5162 43.2459 25.8125 42.5 25.8125H12.5C11.7541 25.8125 11.0387 25.5162 10.5113 24.9887C9.98382 24.4613 9.6875 23.7459 9.6875 23C9.6875 22.2541 9.98382 21.5387 10.5113 21.0113C11.0387 20.4838 11.7541 20.1875 12.5 20.1875H42.5ZM42.5 7.0625C43.2459 7.0625 43.9613 7.35882 44.4887 7.88626C45.0162 8.41371 45.3125 9.12908 45.3125 9.875C45.3125 10.6209 45.0162 11.3363 44.4887 11.8637C43.9613 12.3912 43.2459 12.6875 42.5 12.6875H12.5C11.7541 12.6875 11.0387 12.3912 10.5113 11.8637C9.98382 11.3363 9.6875 10.6209 9.6875 9.875C9.6875 9.12908 9.98382 8.41371 10.5113 7.88626C11.0387 7.35882 11.7541 7.0625 12.5 7.0625H42.5Z" fill="#DFEDFA"/>
</svg>
