<svg width="20" height="21" viewBox="0 0 20 21" fill="none" xmlns="http://www.w3.org/2000/svg">
<path d="M6.66683 6.83317H7.16683V6.33317V5.49984C7.16683 3.93503 8.43536 2.6665 10.0002 2.6665C11.5649 2.6665 12.8335 3.93503 12.8335 5.49984V6.33317V6.83317H13.3335H13.9585C15.1781 6.83317 16.1668 7.82187 16.1668 9.0415V9.16731C16.0829 9.16892 15.9996 9.17298 15.9168 9.1794V9.0415C15.9168 7.95995 15.0401 7.08317 13.9585 7.08317H6.04183C4.96027 7.08317 4.0835 7.95995 4.0835 9.0415V15.2915C4.0835 16.3731 4.96027 17.2498 6.04183 17.2498H8.77581C8.74884 17.3316 8.72672 17.4151 8.70962 17.4998H6.04183C4.8222 17.4998 3.8335 16.5111 3.8335 15.2915V9.0415C3.8335 7.82187 4.8222 6.83317 6.04183 6.83317H6.66683ZM12.0835 6.83317H12.5835V6.33317V5.49984C12.5835 4.0731 11.4269 2.9165 10.0002 2.9165C8.57344 2.9165 7.41683 4.0731 7.41683 5.49984V6.33317V6.83317H7.91683H12.0835ZM13.7815 14.509L13.9841 14.3064L13.9117 14.0292C13.8608 13.834 13.8335 13.6288 13.8335 13.4165C13.8335 12.0818 14.9155 10.9998 16.2502 10.9998C17.5849 10.9998 18.6668 12.0818 18.6668 13.4165C18.6668 14.7512 17.5849 15.8332 16.2502 15.8332H15.0002H14.5002V16.3332V17.0832H13.7502H13.2502V17.5832V18.3332H12.5002H12.0002V18.8332V19.1665H10.5002V17.9283C10.5002 17.84 10.5353 17.7551 10.5978 17.6926L13.7815 14.509ZM10.7502 12.1665C10.7502 12.5807 10.4144 12.9165 10.0002 12.9165C9.58597 12.9165 9.25016 12.5807 9.25016 12.1665C9.25016 11.7523 9.58597 11.4165 10.0002 11.4165C10.4144 11.4165 10.7502 11.7523 10.7502 12.1665ZM18.0002 12.9998C18.0002 12.2634 17.4032 11.6665 16.6668 11.6665C15.9304 11.6665 15.3335 12.2634 15.3335 12.9998C15.3335 13.7362 15.9304 14.3332 16.6668 14.3332C17.4032 14.3332 18.0002 13.7362 18.0002 12.9998Z" fill="#D2D2D2" stroke="#8192AB"/>
</svg>
