<svg width="20" height="21" viewBox="0 0 20 21" fill="none" xmlns="http://www.w3.org/2000/svg">
<path d="M17.5832 8.311V7.48274L16.8503 7.86856L10.0581 11.4441C10.0301 11.4588 9.99789 11.4622 9.96799 11.4544L9.92617 11.436L3.14937 7.86937L2.4165 7.48366V8.31183V14.4585C2.4165 15.4862 3.20783 16.3286 4.21478 16.4104L4.2249 16.4112L4.23504 16.4116L4.35465 16.4164L4.36474 16.4168H4.37484H15.6248C16.6526 16.4168 17.495 15.6255 17.5767 14.6185L17.5775 14.6084L17.5779 14.5983L17.5828 14.4787L17.5832 14.4686V14.4585V8.311ZM15.645 4.5839L15.6349 4.5835H15.6248H4.37484C3.34711 4.5835 2.50472 5.37482 2.42298 6.38176L2.42216 6.39189L2.42175 6.40203L2.41691 6.52164L2.4165 6.53173V6.54183V6.89933V7.2012L2.68364 7.34179L9.76697 11.0697L9.99986 11.1923L10.2327 11.0697L17.3161 7.34094L17.5832 7.20034V6.8985V6.54183C17.5832 5.5141 16.7919 4.67171 15.7849 4.58997L15.7748 4.58915L15.7646 4.58874L15.645 4.5839ZM4.3818 4.3335H15.6248C16.8 4.3335 17.761 5.25165 17.8293 6.40944L17.8332 6.54875V14.4585C17.8332 15.6336 16.915 16.5947 15.7572 16.663L15.6179 16.6668H4.37484C3.19968 16.6668 2.23862 15.7486 2.17039 14.5909L2.1665 14.4515V6.54183C2.1665 5.36667 3.08468 4.40561 4.24244 4.33738L4.3818 4.3335Z" fill="#4D5158" stroke="#8192AB"/>
</svg>
