<svg width="19" height="19" viewBox="0 0 19 19" fill="none" xmlns="http://www.w3.org/2000/svg">
<g clip-path="url(#clip0_182_6263)">
<path d="M17.3099 9.26514C15.6249 6.15014 12.6699 4.26514 9.39986 4.26514C6.12986 4.26514 3.16986 6.15014 1.49986 9.26514L1.35986 9.50014L1.48986 9.74014C3.17486 12.8551 6.12986 14.7401 9.39986 14.7401C12.6699 14.7401 15.6299 12.8801 17.3099 9.74014L17.4399 9.50014L17.3099 9.26514ZM9.39986 13.7151C6.58486 13.7151 3.99986 12.1451 2.49986 9.50014C3.99986 6.85514 6.58486 5.28514 9.39986 5.28514C12.2149 5.28514 14.7699 6.86014 16.2949 9.50014C14.7699 12.1451 12.2099 13.7151 9.39986 13.7151Z" fill="#8192AB"/>
<path d="M9.54511 6.08505C8.86717 6.09 8.20589 6.29574 7.64482 6.67629C7.08374 7.05684 6.64802 7.59513 6.39269 8.22317C6.13736 8.85121 6.07387 9.54084 6.21025 10.2049C6.34663 10.869 6.67675 11.4778 7.15892 11.9544C7.6411 12.431 8.25369 12.754 8.91933 12.8827C9.58498 13.0113 10.2738 12.9398 10.8988 12.6772C11.5239 12.4145 12.057 11.9726 12.431 11.4071C12.805 10.8416 13.0031 10.178 13.0001 9.50005C12.9981 9.04877 12.9071 8.60231 12.7323 8.18626C12.5575 7.77021 12.3023 7.39275 11.9814 7.0755C11.6604 6.75826 11.28 6.50747 10.8619 6.33751C10.4439 6.16755 9.99638 6.08176 9.54511 6.08505ZM9.54511 11.9451C9.06623 11.9401 8.5995 11.7938 8.20351 11.5245C7.80753 11.2551 7.49996 10.8748 7.31943 10.4312C7.1389 9.98766 7.09346 9.50063 7.18881 9.03133C7.28417 8.56202 7.51607 8.13135 7.85539 7.79341C8.19472 7.45547 8.62633 7.22533 9.09602 7.13189C9.56572 7.03844 10.0525 7.08587 10.4954 7.26821C10.9382 7.45055 11.3173 7.75967 11.585 8.15675C11.8527 8.55383 11.9971 9.02116 12.0001 9.50005C12.0014 9.82235 11.9388 10.1417 11.8157 10.4396C11.6927 10.7375 11.5118 11.008 11.2834 11.2354C11.055 11.4629 10.7838 11.6427 10.4854 11.7645C10.187 11.8863 9.8674 11.9477 9.54511 11.9451Z" fill="#8192AB"/>
</g>
<defs>
<clipPath id="clip0_182_6263">
<rect width="18" height="18" fill="white" transform="translate(0.5 0.5)"/>
</clipPath>
</defs>
</svg>
