<svg width="21" height="21" viewBox="0 0 21 21" fill="none" xmlns="http://www.w3.org/2000/svg">
<path d="M5.78947 14.4938C5.75412 14.5071 5.71912 14.5206 5.68448 14.5343L5.78947 14.4938ZM5.78947 14.4938C5.73012 14.428 5.67093 14.3615 5.61199 14.2942C5.60564 14.2967 5.59931 14.2992 5.59299 14.3016L5.59279 14.3017C4.96219 14.5501 4.44335 14.849 4.08008 15.1874L4.08007 15.1874C3.71599 15.5265 3.5 15.9136 3.5 16.3331C3.5 16.7525 3.71598 17.1396 4.08007 17.4787L4.08008 17.4787C4.44335 17.8171 4.96219 18.116 5.59282 18.3645C5.59283 18.3645 5.59283 18.3645 5.59284 18.3645L5.40957 18.8297L5.78947 14.4938ZM16.7495 15.3702L16.7496 15.3703C17.0835 15.6814 17.25 16.007 17.25 16.3331C17.25 16.6592 17.0835 16.9847 16.7496 17.2958L16.7495 17.2958C16.417 17.6055 15.9291 17.8901 15.3155 18.1318C14.0894 18.6149 12.3869 18.9164 10.5 18.9164C8.61315 18.9164 6.91063 18.6149 5.68444 18.1318C5.07096 17.8902 4.583 17.6055 4.2505 17.2958L4.25043 17.2958C3.91649 16.9847 3.75 16.6592 3.75 16.3331C3.75 16.007 3.91646 15.6814 4.25043 15.3703L4.2505 15.3703C4.58299 15.0606 5.07094 14.7759 5.6844 14.5343L16.7495 15.3702ZM16.7495 15.3702C16.417 15.0606 15.9291 14.776 15.3156 14.5343M16.7495 15.3702L15.3156 14.5343M15.3156 14.5343C15.2809 14.5207 15.2459 14.5072 15.2105 14.4938M15.3156 14.5343L15.2105 14.4938M15.2105 14.4938C15.2699 14.428 15.3291 14.3615 15.388 14.2942L15.2105 14.4938ZM6.72721 12.3806L6.72722 12.3806C7.69608 13.6008 8.86452 14.638 9.65866 15.2822C10.1544 15.6844 10.8456 15.6844 11.3413 15.2822C12.1355 14.638 13.304 13.6008 14.2728 12.3806C15.2444 11.1567 16 9.76749 16 8.4165C16 5.37894 13.5376 2.9165 10.5 2.9165C7.46243 2.9165 5 5.37894 5 8.4165C5 9.76749 5.75558 11.1567 6.72721 12.3806ZM14.4686 12.5359L14.8602 12.8468L14.4686 12.5359C13.4837 13.7764 12.2997 14.8267 11.4988 15.4764L11.4988 15.4764C10.9113 15.953 10.0887 15.953 9.50118 15.4764L9.50117 15.4764C8.70027 14.8266 7.51627 13.7764 6.53142 12.5359L6.53141 12.5359C5.54939 11.2991 4.75 9.85379 4.75 8.4165C4.75 5.24086 7.32436 2.6665 10.5 2.6665C13.6756 2.6665 16.25 5.24086 16.25 8.4165C16.25 9.85379 15.4506 11.2991 14.4686 12.5359ZM10.5 6.6665C9.53353 6.6665 8.75 7.45 8.75 8.4165C8.75 9.38298 9.53352 10.1665 10.5 10.1665C11.4665 10.1665 12.25 9.38298 12.25 8.4165C12.25 7.45 11.4665 6.6665 10.5 6.6665ZM8.5 8.4165C8.5 7.31193 9.3954 6.4165 10.5 6.4165C11.6046 6.4165 12.5 7.31193 12.5 8.4165C12.5 9.52111 11.6046 10.4165 10.5 10.4165C9.39539 10.4165 8.5 9.52111 8.5 8.4165Z" fill="#4D5158" stroke="#8192AB"/>
</svg>
