<svg width="24" height="24" viewBox="0 0 24 24" fill="none" xmlns="http://www.w3.org/2000/svg">
<path d="M13.001 19.938C15.0183 19.6813 16.8621 18.6661 18.1578 17.0988C19.4535 15.5314 20.1037 13.5295 19.9764 11.5C19.849 9.47041 18.9536 7.56549 17.4722 6.17238C15.9908 4.77927 14.0345 4.00252 12.001 4C9.96494 3.99848 8.00493 4.77334 6.52032 6.16668C5.03571 7.56002 4.13822 9.46699 4.01072 11.499C3.88322 13.5311 4.53531 15.5353 5.83412 17.1033C7.13293 18.6712 8.98071 19.685 11.001 19.938V14H9.00098V12H11.001V10.346C11.001 9.009 11.141 8.524 11.401 8.035C11.6573 7.55133 12.0531 7.15589 12.537 6.9C12.919 6.695 13.394 6.572 14.224 6.519C14.5533 6.49767 14.9793 6.52433 15.502 6.599V8.499H15.002C14.085 8.499 13.706 8.542 13.48 8.663C13.3452 8.73252 13.2355 8.84227 13.166 8.977C13.046 9.203 13.002 9.427 13.002 10.345V12H15.502L15.002 14H13.002L13.001 19.938ZM12.001 22C6.47798 22 2.00098 17.523 2.00098 12C2.00098 6.477 6.47798 2 12.001 2C17.524 2 22.001 6.477 22.001 12C22.001 17.523 17.524 22 12.001 22Z" fill="#3978D7"/>
</svg>
