<svg width="20" height="20" viewBox="0 0 20 20" fill="none" xmlns="http://www.w3.org/2000/svg">
<path d="M2.5 5.20833C2.5 3.71256 3.71256 2.5 5.20833 2.5H14.7917C16.2874 2.5 17.5 3.71256 17.5 5.20833V14.7917C17.5 16.2874 16.2874 17.5 14.7917 17.5H5.20833C3.71256 17.5 2.5 16.2874 2.5 14.7917V5.20833ZM5.20833 3.75C4.40292 3.75 3.75 4.40292 3.75 5.20833V14.7917C3.75 15.5971 4.40292 16.25 5.20833 16.25H14.7917C15.5971 16.25 16.25 15.5971 16.25 14.7917V5.20833C16.25 4.40292 15.5971 3.75 14.7917 3.75H5.20833Z" fill="#4D5158"/>
</svg>
