<svg width="20" height="21" viewBox="0 0 20 21" fill="none" xmlns="http://www.w3.org/2000/svg">
<path d="M15.5386 16.2275C14.3545 17.6109 12.5261 18.3346 10.0002 18.3346C7.4737 18.3346 5.64664 17.6106 4.46523 16.2271L4.46521 16.227C4.05939 15.7518 3.83643 15.1474 3.83643 14.5224V14.0411C3.83643 13.2821 4.45161 12.667 5.21048 12.667H14.7952C15.5542 12.667 16.1693 13.2821 16.1693 14.0411V14.5206C16.1693 15.1466 15.9456 15.7519 15.5386 16.2275ZM15.5386 16.2275L15.9184 16.5527L15.5386 16.2275ZM14.7952 12.917H5.21048C4.58966 12.917 4.08643 13.4203 4.08643 14.0411V14.5224C4.08643 15.0878 4.28814 15.6347 4.65533 16.0647C5.82739 17.4372 7.63105 18.0846 10.0002 18.0846C12.3693 18.0846 14.1741 17.4372 15.3486 16.065C15.717 15.6346 15.9193 15.0869 15.9193 14.5206V14.0411C15.9193 13.4203 15.4161 12.917 14.7952 12.917ZM10.0002 2.6709C12.0252 2.6709 13.6668 4.31253 13.6668 6.33756C13.6668 8.36262 12.0252 10.0042 10.0002 10.0042C7.97509 10.0042 6.33347 8.36261 6.33347 6.33756C6.33347 4.31253 7.97509 2.6709 10.0002 2.6709ZM10.0002 2.9209C8.1132 2.9209 6.58347 4.45059 6.58347 6.33756C6.58347 8.22454 8.11319 9.75425 10.0002 9.75425C11.8871 9.75425 13.4168 8.22454 13.4168 6.33756C13.4168 4.4506 11.8871 2.9209 10.0002 2.9209Z" fill="#8192AB" stroke="#8192AB"/>
</svg>
